# xmcd
#
# Track frame offsets:
# 150
# 18796
# 40742
# 64278
# 87618
# 108133
# 133203
# 152554
# 170188
# 190023
# 206992
# 223713
# 243167
# 263933
# 282656
# 307297
#
# Disc length: 4313 seconds
#
#
# Revision: 0
# Processed by: cddbd v1.5.2PL0 Copyright (c) Steve Scherf et al.
# Submitted via: FreeRIP 2.944 
#
DISCID=f610d710
DTITLE=FLASH 2 - flah collection
DYEAR=1900
DGENRE=Funk
TTITLE0=Sir Mix-A-Lot - Posse On Broadway
TTITLE1=King Tee - Played Like A Piano
TTITLE2=EPMD - You're A Customer
TTITLE3=Grand Daddy I.U. - This Is A Recording
TTITLE4=Joeski Love - Pee Wee's Dance
TTITLE5=Derek B - Bullet From A Gun
TTITLE6=Bobby Jimmy and General Jeff - Overlapping Waist
TTITLE7=Audio Two - Top Billin
TTITLE8=Ice-T - Colors
TTITLE9=Queen Latifah - Princess Of The Posse
TTITLE10=Eric B. and Rakim - Move The Crowd
TTITLE11=Rodney O and Joe Cooley - Nobody Disses Me
TTITLE12=Whodini - Friends
TTITLE13=Chubb Rock - DJ Innovator
TTITLE14=Pianonegro - The Baby Attack Remix
TTITLE15=King Tee - Bass (Instrumental)
EXTD=
EXTT0=
EXTT1=
EXTT2=
EXTT3=
EXTT4=
EXTT5=
EXTT6=
EXTT7=
EXTT8=
EXTT9=
EXTT10=
EXTT11=
EXTT12=
EXTT13=
EXTT14=
EXTT15=
PLAYORDER=
